PathFileType	4	(X/Y/Z)	/Users/itak/Documents/Research/Walk-IL/dataset/trc/00512_00183.trc
DataRate	CameraRate	NumFrames	NumMarkers	Units	OrigDataRate	OrigDataStartFrame	OrigNumFrames
100.000000	100.000000	4	54	mm	100.000000	52	422
Frame#	Time	RPSI			LPSI			L3			STRN			T10			C7			CLAV			RBAK			LBAK			LSHO			LUPA			LAEL			LAOL			LWTS			LWPS			LFRA			LIFD			LHPS			LHTS			RSHO			RUPA			RAEL			RAOL			RWTS			RWPS			RFRA			RIFD			RHTS			RHPS			RBHD			LFHD			RFHD			LBHD			LHIP			RASI			LASI			LKNE			LTHI			LANK			LTIP			LTOE			LMT1			LMT5			LHEE			RKNE			RTHI			RANK			RTIP			RTOE			RMT1			RMT5			RHEE			RHIP			*53			
		X1	Y1	Z1	X2	Y2	Z2	X3	Y3	Z3	X4	Y4	Z4	X5	Y5	Z5	X6	Y6	Z6	X7	Y7	Z7	X8	Y8	Z8	X9	Y9	Z9	X10	Y10	Z10	X11	Y11	Z11	X12	Y12	Z12	X13	Y13	Z13	X14	Y14	Z14	X15	Y15	Z15	X16	Y16	Z16	X17	Y17	Z17	X18	Y18	Z18	X19	Y19	Z19	X20	Y20	Z20	X21	Y21	Z21	X22	Y22	Z22	X23	Y23	Z23	X24	Y24	Z24	X25	Y25	Z25	X26	Y26	Z26	X27	Y27	Z27	X28	Y28	Z28	X29	Y29	Z29	X30	Y30	Z30	X31	Y31	Z31	X32	Y32	Z32	X33	Y33	Z33	X34	Y34	Z34	X35	Y35	Z35	X36	Y36	Z36	X37	Y37	Z37	X38	Y38	Z38	X39	Y39	Z39	X40	Y40	Z40	X41	Y41	Z41	X42	Y42	Z42	X43	Y43	Z43	X44	Y44	Z44	X45	Y45	Z45	X46	Y46	Z46	X47	Y47	Z47	X48	Y48	Z48	X49	Y49	Z49	X50	Y50	Z50	X51	Y51	Z51	X52	Y52	Z52	X53	Y53	Z53	X54	Y54	Z54	

53	0.52	-1229.249145507812	968.4675903320312	-499.4676818847656	-1161.277465820312	968.4596557617188	-602.64501953125	-1198.058227539062	1034.812255859375	-557.9932250976562	-999.3534545898438	1198.859008789062	-455.8324890136719	-1212.770385742188	1143.261474609375	-562.5336303710938	-1168.22216796875	1371.328979492188	-537.1510009765625	-1030.911865234375	1293.725341796875	-472.1398315429688	-1250.70458984375	1250.603149414062	-481.9200134277344	-1154.806640625	1317.634033203125	-626.1679077148438	-1038.401489257812	1364.35888671875	-652.2949829101562	-1030.85986328125	1238.8955078125	-715.292236328125	-1024.468627929688	1027.665283203125	-738.9444580078125	-1115.3193359375	1023.0478515625	-699.005859375	-952.419189453125	842.932373046875	-660.6800537109375	-1008.376953125	806.0648193359375	-727.9323120117188	-1008.131103515625	947.83251953125	-731.075927734375	-950.34033203125	687.8717041015625	-647.5482788085938	-984.7644653320312	751.71533203125	-713.8743286132812	-934.31396484375	765.5354614257812	-675.4667358398438	-1184.27294921875	1365.708618164062	-380.6581420898438	-1227.208374023438	1299.494384765625	-338.3110046386719	-1245.561889648438	1030.317626953125	-303.0653991699219	-1277.991943359375	1015.609619140625	-359.3609313964844	-1130.575561523438	834.6453247070312	-293.8857727050781	-1216.517700195312	808.5057983398438	-277.5845947265625	-1243.90625	976.0095825195312	-295.7838745117188	-1124.846557617188	675.1862182617188	-294.1687927246094	-1122.265991210938	740.9656372070312	-265.8046569824219	-1192.887939453125	736.3510131835938	-268.8462219238281	-1174.567749023438	1522.18798828125	-452.3568115234375	-996.3455200195312	1592.646240234375	-513.92578125	-1062.777709960938	1587.435180664062	-404.8178100585938	-1104.97119140625	1522.787475585938	-595.5311279296875	-1000.616149902344	894.0233764648438	-656.9828491210938	-1087.24365234375	911.710693359375	-341.4183349609375	-959.614013671875	924.5768432617188	-547.7057495117188	-1030.065673828125	471.9974975585938	-618.3277587890625	-999.0818481445312	628.482421875	-630.29931640625	-1147.02099609375	47.93923187255859	-667.0206298828125	-1066.950805664062	324.8185119628906	-639.4535522460938	-1001.170349121094	38.2632942199707	-520.7843017578125	-1085.460327148438	41.4079475402832	-529.4310302734375	-1045.848266601562	46.67471694946289	-623.255126953125	-1219.22998046875	37.80094909667969	-639.0126953125	-1198.743896484375	480.0172119140625	-373.7509765625	-1191.958740234375	739.1068115234375	-325.1761474609375	-1274.008178710938	53.89751434326172	-445.5868225097656	-1199.0009765625	334.8367614746094	-394.6473999023438	-1080.831909179688	42.03751754760742	-380.6401977539062	-1117.916259765625	43.98193740844727	-447.5411987304688	-1184.02978515625	50.88456344604492	-376.5337219238281	-1297.072265625	43.36613464355469	-511.8540344238281	-1210.644165039062	869.58544921875	-342.5855407714844	nan	nan	nan	
54	0.53	-1229.158813476562	968.4988403320312	-499.3821411132812	-1161.182983398438	968.4586791992188	-602.5791625976562	-1197.840698242188	1034.727172851562	-557.8469848632812	-999.14453125	1198.785522460938	-455.7811584472656	-1212.583618164062	1143.276245117188	-562.41943359375	-1167.954467773438	1371.349853515625	-536.98046875	-1030.675537109375	1293.681762695312	-472.0290222167969	-1250.482543945312	1250.642822265625	-481.7665405273438	-1154.565673828125	1317.658447265625	-626.0341796875	-1038.232177734375	1364.32421875	-652.2002563476562	-1030.764770507812	1238.901611328125	-715.2232666015625	-1024.470092773438	1027.662963867188	-738.947265625	-1115.300048828125	1023.082641601562	-698.9746704101562	-952.4558715820312	842.9241333007812	-660.7581787109375	-1008.366271972656	806.0803833007812	-727.9879150390625	-1008.140686035156	947.8377685546875	-731.103515625	-950.2317504882812	687.8856201171875	-647.644287109375	-984.80712890625	751.7321166992188	-713.98388671875	-934.2269287109375	765.5321655273438	-675.5902709960938	-1183.960205078125	1365.677490234375	-380.4913940429688	-1226.89599609375	1299.463500976562	-338.1495056152344	-1245.347290039062	1030.300048828125	-302.9819946289062	-1277.817626953125	1015.614318847656	-359.2697143554688	-1130.429809570312	834.6184692382812	-293.8905639648438	-1216.368041992188	808.4714965820312	-277.5930480957031	-1243.713745117188	975.9915161132812	-295.722412109375	-1124.76220703125	675.1423950195312	-294.1544799804688	-1122.163330078125	740.91845703125	-265.7789001464844	-1192.780883789062	736.335693359375	-268.8271484375	-1174.102783203125	1522.212646484375	-452.0812072753906	-995.8014526367188	1592.520141601562	-513.6199340820312	-1062.248657226562	1587.301025390625	-404.4751281738281	-1104.526977539062	1522.868041992188	-595.2846069335938	-1000.590087890625	894.0310668945312	-657.0164794921875	-1087.092407226562	911.6591186523438	-341.4361572265625	-959.5584716796875	924.5436401367188	-547.7734375	-1030.114624023438	471.9835205078125	-618.4246215820312	-999.09033203125	628.4691772460938	-630.3975219726562	-1147.01318359375	47.93092727661133	-667.0325317382812	-1066.991577148438	324.8097839355469	-639.544677734375	-1001.17431640625	38.26410293579102	-520.7922973632812	-1085.458984375	41.41218185424805	-529.4365844726562	-1045.846801757812	46.66771697998047	-623.2608032226562	-1219.232299804688	37.7977180480957	-639.0093994140625	-1198.551391601562	479.9873046875	-373.7180786132812	-1191.838989257812	739.0812377929688	-325.1285705566406	-1273.975952148438	53.91643524169922	-445.6404418945312	-1198.773315429688	334.7734069824219	-394.6929626464844	-1080.821533203125	42.03912353515625	-380.6547241210938	-1117.893920898438	43.93938446044922	-447.5690002441406	-1184.005859375	50.91262054443359	-376.5747680664062	-1297.07861328125	43.3582763671875	-511.8689880371094	-1210.5078125	869.5875244140625	-342.5326232910156	nan	nan	nan	
55	0.54	-1229.075073242188	968.5400390625	-499.2807006835938	-1161.100708007812	968.4654541015625	-602.5098876953125	-1197.640502929688	1034.644287109375	-557.6951904296875	-998.9388427734375	1198.710205078125	-455.7256774902344	-1212.40869140625	1143.288452148438	-562.2997436523438	-1167.684326171875	1371.370971679688	-536.8079223632812	-1030.436157226562	1293.634033203125	-471.9131164550781	-1250.257446289062	1250.68896484375	-481.60205078125	-1154.3271484375	1317.679809570312	-625.8887939453125	-1038.053344726562	1364.283569335938	-652.0944213867188	-1030.66748046875	1238.90380859375	-715.1455688476562	-1024.479858398438	1027.659057617188	-738.945068359375	-1115.29833984375	1023.124450683594	-698.94189453125	-952.5233764648438	842.9063110351562	-660.85595703125	-1008.374755859375	806.0927734375	-728.0411987304688	-1008.15966796875	947.843017578125	-731.1256103515625	-950.1473999023438	687.8930053710938	-647.72509765625	-984.883544921875	751.7665405273438	-714.10546875	-934.1378784179688	765.52099609375	-675.719970703125	-1183.64306640625	1365.647216796875	-380.3133544921875	-1226.58642578125	1299.435180664062	-337.9734497070312	-1245.138671875	1030.283569335938	-302.891357421875	-1277.644653320312	1015.621337890625	-359.1657104492188	-1130.293334960938	834.5875854492188	-293.8877258300781	-1216.223388671875	808.4367065429688	-277.5995483398438	-1243.523803710938	975.9729614257812	-295.65576171875	-1124.68701171875	675.0943603515625	-294.1389770507812	-1122.064575195312	740.865234375	-265.76318359375	-1192.68359375	736.3189086914062	-268.8088989257812	-1173.629272460938	1522.243408203125	-451.8018188476562	-995.2652587890625	1592.389282226562	-513.3062133789062	-1061.71533203125	1587.16943359375	-404.1367492675781	-1104.076782226562	1522.946166992188	-595.0382690429688	-1000.574096679688	894.037109375	-657.0503540039062	-1086.93505859375	911.6007690429688	-341.4533081054688	-959.5087890625	924.505615234375	-547.8424682617188	-1030.171752929688	471.9742126464844	-618.5158081054688	-999.104736328125	628.4581298828125	-630.5003051757812	-1147.0068359375	47.92434692382812	-667.0451049804688	-1067.028442382812	324.8057250976562	-639.6298217773438	-1001.179077148438	38.2657470703125	-520.80029296875	-1085.45751953125	41.41662216186523	-529.4418334960938	-1045.845703125	46.66134643554688	-623.2659301757812	-1219.23486328125	37.79410171508789	-639.00537109375	-1198.379272460938	479.9578552246094	-373.689208984375	-1191.719360351562	739.0556640625	-325.0889892578125	-1273.951782226562	53.92847442626953	-445.6825561523438	-1198.563842773438	334.7134399414062	-394.7308959960938	-1080.811889648438	42.04156494140625	-380.6681213378906	-1117.875854492188	43.90255737304688	-447.5931396484375	-1183.987548828125	50.93749237060547	-376.6085510253906	-1297.087768554688	43.34403991699219	-511.8850402832031	-1210.344482421875	869.5708618164062	-342.4629821777344	nan	nan	nan	
56	0.55	-1228.997314453125	968.587646484375	-499.1648864746094	-1161.029174804688	968.4757080078125	-602.4390258789062	-1197.454223632812	1034.564331054688	-557.538818359375	-998.734619140625	1198.633544921875	-455.6651000976562	-1212.244140625	1143.3017578125	-562.1715087890625	-1167.41064453125	1371.393188476562	-536.6297607421875	-1030.192626953125	1293.582275390625	-471.7936706542969	-1250.028930664062	1250.740844726562	-481.4238586425781	-1154.091552734375	1317.699096679688	-625.7288208007812	-1037.866455078125	1364.239501953125	-651.9776611328125	-1030.5693359375	1238.903442382812	-715.059814453125	-1024.497802734375	1027.655151367188	-738.9385375976562	-1115.303588867188	1023.169494628906	-698.9033813476562	-952.6187133789062	842.8783569335938	-660.9752807617188	-1008.405212402344	806.1012573242188	-728.093505859375	-1008.187561035156	947.8480224609375	-731.1431274414062	-950.0919189453125	687.8935546875	-647.7935791015625	-984.9942626953125	751.8201904296875	-714.2378540039062	-934.0538330078125	765.5022583007812	-675.8521728515625	-1183.320068359375	1365.618408203125	-380.1216125488281	-1226.277465820312	1299.408813476562	-337.7797546386719	-1244.9365234375	1030.267456054688	-302.7911987304688	-1277.472778320312	1015.630310058594	-359.0457458496094	-1130.16357421875	834.5511474609375	-293.87841796875	-1216.083129882812	808.40087890625	-277.6012878417969	-1243.336791992188	975.9527587890625	-295.5810852050781	-1124.617919921875	675.0413818359375	-294.1238098144531	-1121.966430664062	740.80517578125	-265.7580261230469	-1192.593505859375	736.2992553710938	-268.7908020019531	-1173.147827148438	1522.27978515625	-451.5184326171875	-994.74072265625	1592.253662109375	-512.98876953125	-1061.177734375	1587.039306640625	-403.8062133789062	-1103.622314453125	1523.018676757812	-594.791015625	-1000.56787109375	894.041748046875	-657.0838012695312	-1086.773071289062	911.5364379882812	-341.4686279296875	-959.4666748046875	924.4630126953125	-547.9121704101562	-1030.23486328125	471.9691162109375	-618.6002197265625	-999.1243286132812	628.4490966796875	-630.6038208007812	-1147.001831054688	47.91933822631836	-667.0580444335938	-1067.060913085938	324.8053894042969	-639.7081909179688	-1001.184204101562	38.2682991027832	-520.8080444335938	-1085.456298828125	41.42131423950195	-529.4466552734375	-1045.844970703125	46.65580368041992	-623.2706909179688	-1219.238037109375	37.78999710083008	-639.0006713867188	-1198.22705078125	479.9285278320312	-373.6644897460938	-1191.599487304688	739.0291137695312	-325.0563049316406	-1273.934448242188	53.93446350097656	-445.7151184082031	-1198.372192382812	334.657470703125	-394.7611694335938	-1080.802734375	42.044677734375	-380.6804809570312	-1117.861938476562	43.87045669555664	-447.6133728027344	-1183.974365234375	50.95957183837891	-376.6358642578125	-1297.097778320312	43.32284545898438	-511.9049072265625	-1210.148681640625	869.5303955078125	-342.3742980957031	nan	nan	nan	
